<svg width="60" height="18" viewBox="0 0 60 18" fill="none" xmlns="http://www.w3.org/2000/svg">
<g id="&#237;&#153;&#136; &#237;&#153;&#148;&#235;&#169;&#180;">
<g id="Frame 875">
<g id="Layer_1" clip-path="url(#clip0_257_1079)">
<g id="Group 13">
<g id="Group">
<path id="Vector" d="M1.25044 14.9413C1.46382 15.2467 1.72682 15.5213 2.03697 15.7677C2.34712 16.014 2.70689 16.2168 3.12125 16.3708C3.53313 16.5273 3.99463 16.6043 4.50327 16.6043C5.01191 16.6043 5.50071 16.5093 5.92003 16.322C6.34183 16.1347 6.69912 15.878 6.9919 15.5572C7.28468 15.2365 7.51295 14.8592 7.67174 14.4229C7.83054 13.9867 7.90993 13.5247 7.90993 13.032C7.90993 12.2775 7.72385 11.677 7.34919 11.233C6.97701 10.7891 6.51055 10.4195 5.95476 10.1244C5.39898 9.82928 4.79853 9.55725 4.1559 9.31088C3.51328 9.06452 2.91283 8.75657 2.35705 8.38702C1.80126 8.01747 1.33728 7.54527 0.96262 6.97042C0.590442 6.39557 0.401872 5.62312 0.401872 4.65562C0.401872 3.96529 0.520969 3.33655 0.759163 2.77196C0.997356 2.20738 1.34224 1.71722 1.7963 1.30661C2.24787 0.896001 2.79373 0.575214 3.42892 0.346813C4.0641 0.115847 4.77868 0.00292969 5.57266 0.00292969C6.36664 0.00292969 6.99438 0.0978826 7.55016 0.285222C8.10595 0.475128 8.62203 0.765119 9.09842 1.16033C8.95451 1.44006 8.83542 1.73518 8.74113 2.04827C8.64685 2.36136 8.55008 2.754 8.4558 3.23133H8.17046C8.09106 3.00036 7.98437 2.75143 7.84791 2.47941C7.71392 2.20738 7.53031 1.95845 7.29956 1.72748C7.06881 1.49651 6.79588 1.30404 6.47829 1.1475C6.1607 0.990954 5.7786 0.913965 5.33447 0.913965C4.89033 0.913965 4.48094 0.988387 4.10876 1.13467C3.73658 1.28351 3.40907 1.49138 3.13117 1.76341C2.85328 2.03544 2.6399 2.35879 2.48855 2.73603C2.3372 3.11328 2.26276 3.52389 2.26276 3.96786C2.26276 4.74031 2.44885 5.34852 2.82351 5.78993C3.19569 6.2339 3.66215 6.60601 4.21793 6.9114C4.77372 7.21679 5.37417 7.48625 6.01679 7.72491C6.65942 7.96358 7.25986 8.25357 7.81565 8.60002C8.37144 8.9439 8.83542 9.38787 9.21008 9.92936C9.58225 10.4709 9.77082 11.1945 9.77082 12.0979C9.77082 12.8524 9.63932 13.5684 9.3788 14.2407C9.11579 14.9131 8.73617 15.5008 8.23497 16.0012C7.73377 16.5016 7.1234 16.8892 6.40137 17.1586C5.67935 17.4306 4.8556 17.5641 3.93508 17.5641C2.95005 17.5641 2.15359 17.4281 1.54074 17.1586C0.930364 16.8866 0.416759 16.5786 0.00488281 16.2348C0.148791 15.8575 0.245558 15.5162 0.302625 15.2134C0.357211 14.9105 0.409316 14.5205 0.456458 14.0431H0.741794C0.868335 14.3383 1.03954 14.6385 1.25292 14.9413H1.25044Z" fill="#03C1FB"/>
<path id="Vector_2" d="M45.2817 17.2455C45.0584 17.2121 44.85 17.1967 44.6515 17.1967H43.3886C43.1901 17.1967 42.9792 17.2121 42.7584 17.2455C42.6467 16.8683 42.4954 16.4115 42.3068 15.8777C42.1157 15.3439 41.9048 14.7844 41.6766 14.2019C41.4458 13.6193 41.2126 13.0265 40.9744 12.4286C40.7362 11.8306 40.5129 11.2583 40.307 10.7169C39.7983 10.7015 39.2822 10.6886 38.7587 10.6809C38.2352 10.6732 37.7116 10.6681 37.1856 10.6681C36.6944 10.6681 36.208 10.6732 35.7317 10.6809C35.2553 10.6886 34.7714 10.7015 34.2777 10.7169C33.769 11.9974 33.31 13.2164 32.8957 14.3764C32.4813 15.5338 32.1736 16.491 31.9677 17.2455C31.6972 17.2121 31.4045 17.1967 31.0869 17.1967C30.7693 17.1967 30.4765 17.2121 30.2061 17.2455C31.4913 14.3713 32.7468 11.515 33.97 8.67151C35.1932 5.83062 36.4239 2.94097 37.662 0H38.1136C38.4957 0.952096 38.9076 1.98375 39.3517 3.09239C39.7958 4.20103 40.2474 5.3225 40.7089 6.45423C41.1704 7.58854 41.6294 8.71257 42.0909 9.82891C42.5524 10.9453 42.9842 11.9846 43.3886 12.9444C43.793 13.9042 44.1578 14.7639 44.4853 15.5184C44.8103 16.2729 45.0758 16.8477 45.2842 17.2429L45.2817 17.2455ZM34.7293 9.58255C35.1411 9.58255 35.5704 9.59025 36.0145 9.60821C36.4586 9.62361 36.8879 9.63387 37.2998 9.63387C37.7439 9.63387 38.188 9.62874 38.6346 9.62104C39.0788 9.61334 39.5229 9.60051 39.9695 9.58511L37.3246 3.32849L34.7293 9.58511V9.58255Z" fill="#03C1FB"/>
<path id="Vector_3" d="M47.8296 17.2455C47.8767 16.2267 47.9214 15.1925 47.9611 14.1403C48.0008 13.0907 48.0206 12.0205 48.0206 10.9376V6.70061C48.0206 5.61764 48.0008 4.55262 47.9611 3.51071C47.9214 2.46879 47.8767 1.40378 47.8296 0.320801C48.0355 0.354163 48.234 0.382392 48.4251 0.408055C48.6161 0.433718 48.8072 0.443983 48.9957 0.443983C49.1843 0.443983 49.3778 0.431152 49.5664 0.408055C49.7575 0.382392 49.956 0.354163 50.1619 0.320801C50.1148 1.40378 50.0701 2.46879 50.0304 3.51071C49.9907 4.55519 49.9708 5.61764 49.9708 6.70061V8.05562C49.9708 8.1865 50.018 8.25322 50.1148 8.25322C50.1768 8.25322 50.2884 8.1788 50.4472 8.03252C51.003 7.53979 51.5861 6.9829 52.199 6.35673C52.8093 5.73312 53.4247 5.08385 54.045 4.41148C54.6653 3.73911 55.2756 3.05391 55.8786 2.35331C56.4815 1.65527 57.0621 0.977773 57.6179 0.320801C57.7915 0.354163 57.9603 0.382392 58.1191 0.408055C58.2779 0.433718 58.4367 0.443983 58.5954 0.443983C58.7865 0.443983 58.9776 0.431152 59.1661 0.408055C59.3572 0.382392 59.5482 0.354163 59.7368 0.320801C59.181 0.81353 58.5533 1.39608 57.8561 2.07101C57.1564 2.74338 56.4542 3.43372 55.747 4.13945C55.0399 4.84518 54.365 5.54065 53.7224 6.22072C53.0798 6.90335 52.5438 7.49873 52.1146 8.00686C53.3998 9.50044 54.7 11.0248 56.0101 12.5774C57.3201 14.13 58.65 15.6852 59.9998 17.2455C59.7616 17.2122 59.5234 17.1968 59.2852 17.1968H57.9156C57.7022 17.1968 57.4814 17.2122 57.2606 17.2455C56.6899 16.5732 56.0572 15.8007 55.3674 14.9307C54.6777 14.0607 54.0028 13.219 53.3428 12.4055C52.6828 11.592 52.0873 10.8631 51.5563 10.2139C51.0229 9.5646 50.6308 9.11036 50.3778 8.84604C50.2512 8.71515 50.1545 8.64843 50.0924 8.64843C50.013 8.64843 49.9733 8.69719 49.9733 8.79728V10.9401C49.9733 12.0231 49.9932 13.0907 50.0329 14.1429C50.0726 15.1951 50.1172 16.2293 50.1644 17.2481C49.7996 17.2147 49.4101 17.1993 48.9982 17.1993C48.5863 17.1993 48.1968 17.2147 47.8321 17.2481L47.8296 17.2455Z" fill="#03C1FB"/>
</g>
<g id="Group_2">
<g id="Group_3">
<path id="Vector_4" d="M26.9778 2.44069C26.9778 2.44069 26.9654 2.43043 26.9604 2.42529C26.9654 2.43043 26.9729 2.43556 26.9778 2.44069Z" fill="#03C1FB"/>
<path id="Vector_5" d="M25.4072 17.0789C25.4519 17.0558 25.499 17.0353 25.5437 17.0122C25.499 17.0353 25.4544 17.0584 25.4072 17.0789Z" fill="#03C1FB"/>
<path id="Vector_6" d="M25.8516 16.8477C25.8888 16.8272 25.9235 16.8067 25.9607 16.7861C25.926 16.8067 25.8888 16.8272 25.8516 16.8477Z" fill="#03C1FB"/>
<path id="Vector_7" d="M24.9609 17.2762C25.0056 17.2582 25.0478 17.2403 25.09 17.2197C25.0478 17.2377 25.0031 17.2582 24.9609 17.2762Z" fill="#03C1FB"/>
<path id="Vector_8" d="M28.2285 3.80566C28.2285 3.80566 28.2384 3.82106 28.2434 3.82619C28.2384 3.8185 28.2335 3.8108 28.2285 3.80566Z" fill="#03C1FB"/>
<path id="Vector_9" d="M27.938 3.42334C27.9504 3.43874 27.9628 3.4567 27.9777 3.4721C27.9653 3.4567 27.9529 3.43874 27.938 3.42334Z" fill="#03C1FB"/>
</g>
<g id="Group_4">
<path id="Vector_10" d="M29.1564 5.52243C28.7197 4.43176 28.1093 3.50789 27.3228 2.75083C26.5362 1.99634 25.5959 1.42149 24.5017 1.02628C23.405 0.631074 22.1966 0.436035 20.8791 0.436035C19.5616 0.436035 18.3781 0.631074 17.2839 1.02628C16.1872 1.42149 15.2468 1.99634 14.4603 2.75083C13.6738 3.50789 13.0634 4.43176 12.6267 5.52243C12.19 6.61567 11.9717 7.86033 11.9717 9.25383C11.9717 10.6473 12.19 11.8945 12.6267 12.9878C13.0634 14.081 13.6738 15.0049 14.4603 15.7594C15.2468 16.5139 16.1872 17.0759 17.2839 17.4454C18.3781 17.815 19.5765 17.9998 20.8791 17.9998C22.1818 17.9998 23.405 17.815 24.5017 17.4454C24.7026 17.3787 24.8987 17.3043 25.0897 17.2196C25.1964 17.176 25.3006 17.1298 25.4048 17.0785C25.5959 16.9886 25.782 16.8911 25.9606 16.7859C26.4568 16.4959 26.9109 16.1546 27.3228 15.7594C28.1093 15.0049 28.7197 14.081 29.1564 12.9878C29.5931 11.8945 29.8114 10.6525 29.8114 9.25383C29.8114 7.8552 29.5931 6.61567 29.1564 5.52243ZM26.9779 12.7902C26.6454 13.7833 26.1789 14.6046 25.5835 15.2538C24.988 15.9031 24.2908 16.383 23.4893 16.6961C22.6854 17.0066 21.817 17.1631 20.8791 17.1631C19.9412 17.1631 19.0976 17.0066 18.2962 16.6961C17.4923 16.383 16.7951 15.9031 16.1996 15.2538C15.6041 14.6046 15.1402 13.7833 14.8052 12.7902C14.4727 11.797 14.3065 10.6191 14.3065 9.25383C14.3065 7.88856 14.4727 6.71319 14.8052 5.72004C15.1402 4.72688 15.6041 3.90567 16.1996 3.25639C16.7951 2.60712 17.4923 2.12722 18.2962 1.81414C19.0976 1.50361 19.9586 1.34707 20.8791 1.34707C21.7997 1.34707 22.6854 1.50361 23.4893 1.81414C24.2908 2.12722 24.988 2.60712 25.5835 3.25639C26.1789 3.90567 26.6454 4.72688 26.9779 5.72004C27.3104 6.71319 27.4791 7.89112 27.4791 9.25383C27.4791 10.6165 27.3104 11.797 26.9779 12.7902Z" fill="#03C1FB"/>
</g>
</g>
</g>
</g>
</g>
</g>
<defs>
<clipPath id="clip0_257_1079">
<rect width="60" height="18" fill="white"/>
</clipPath>
</defs>
</svg>
