<svg preserveAspectRatio="none" overflow="visible" style="display: block;" width="241.82" height="88.33" viewBox="0 0 241.82 88.33" fill="none" xmlns="http://www.w3.org/2000/svg">
<g id="Layer_1" clip-path="url(#clip0_0_4)">
<path id="Vector" d="M5.04 75.74C5.9 76.93 6.96 78 8.21 78.96C9.46 79.92 10.91 80.71 12.58 81.31C14.24 81.92 16.1 82.22 18.15 82.22C20.2 82.22 22.17 81.85 23.86 81.12C25.56 80.39 27 79.39 28.18 78.14C29.36 76.89 30.28 75.42 30.92 73.72C31.56 72.02 31.88 70.22 31.88 68.3C31.88 65.36 31.13 63.02 29.62 61.29C28.12 59.56 26.24 58.12 24 56.97C21.76 55.82 19.34 54.76 16.75 53.8C14.16 52.84 11.74 51.64 9.5 50.2C7.26 48.76 5.39 46.92 3.88 44.68C2.38 42.44 1.62 39.43 1.62 35.66C1.62 32.97 2.1 30.52 3.06 28.32C4.02 26.12 5.41 24.21 7.24 22.61C9.06 21.01 11.26 19.76 13.82 18.87C16.38 17.97 19.26 17.53 22.46 17.53C25.66 17.53 28.19 17.9 30.43 18.63C32.67 19.37 34.75 20.5 36.67 22.04C36.09 23.13 35.61 24.28 35.23 25.5C34.85 26.72 34.46 28.25 34.08 30.11H32.93C32.61 29.21 32.18 28.24 31.63 27.18C31.09 26.12 30.35 25.15 29.42 24.25C28.49 23.35 27.39 22.6 26.11 21.99C24.83 21.38 23.29 21.08 21.5 21.08C19.71 21.08 18.06 21.37 16.56 21.94C15.06 22.52 13.74 23.33 12.62 24.39C11.5 25.45 10.64 26.71 10.03 28.18C9.42 29.65 9.12 31.25 9.12 32.98C9.12 35.99 9.87 38.36 11.38 40.08C12.88 41.81 14.76 43.26 17 44.45C19.24 45.64 21.66 46.69 24.25 47.62C26.84 48.55 29.26 49.68 31.5 51.03C33.74 52.37 35.61 54.1 37.12 56.21C38.62 58.32 39.38 61.14 39.38 64.66C39.38 67.6 38.85 70.39 37.8 73.01C36.74 75.63 35.21 77.92 33.19 79.87C31.17 81.82 28.71 83.33 25.8 84.38C22.89 85.44 19.57 85.96 15.86 85.96C11.89 85.96 8.67 85.43 6.21 84.38C3.75 83.32 1.68 82.12 0.02 80.78C0.6 79.31 1 77.98 1.22 76.8C1.44 75.62 1.65 74.1 1.84 72.24H2.99C3.5 73.39 4.19 74.56 5.05 75.74H5.04Z" fill="white"/>
<path id="Vector_2" d="M182.5 84.72C181.6 84.59 180.76 84.53 179.96 84.53H174.87C174.07 84.53 173.22 84.59 172.33 84.72C171.88 83.25 171.27 81.47 170.51 79.39C169.74 77.31 168.89 75.13 167.97 72.86C167.04 70.59 166.1 68.28 165.14 65.95C164.18 63.62 163.28 61.39 162.45 59.28C160.4 59.22 158.32 59.17 156.21 59.14C154.1 59.11 151.99 59.09 149.87 59.09C147.89 59.09 145.93 59.11 144.01 59.14C142.09 59.17 140.14 59.22 138.15 59.28C136.1 64.27 134.25 69.02 132.58 73.54C130.91 78.05 129.67 81.78 128.84 84.72C127.75 84.59 126.57 84.53 125.29 84.53C124.01 84.53 122.83 84.59 121.74 84.72C126.92 73.52 131.98 62.39 136.91 51.31C141.84 40.24 146.8 28.98 151.79 17.52H153.61C155.15 21.23 156.81 25.25 158.6 29.57C160.39 33.89 162.21 38.26 164.07 42.67C165.93 47.09 167.78 51.47 169.64 55.82C171.5 60.17 173.24 64.22 174.87 67.96C176.5 71.7 177.97 75.05 179.29 77.99C180.6 80.93 181.67 83.17 182.51 84.71L182.5 84.72ZM139.97 54.86C141.63 54.86 143.36 54.89 145.15 54.96C146.94 55.02 148.67 55.06 150.33 55.06C152.12 55.06 153.91 55.04 155.71 55.01C157.5 54.98 159.29 54.93 161.09 54.87L150.43 30.49L139.97 54.87V54.86Z" fill="white"/>
<path id="Vector_3" d="M192.77 84.72C192.96 80.75 193.14 76.72 193.3 72.62C193.46 68.53 193.54 64.36 193.54 60.14V43.63C193.54 39.41 193.46 35.26 193.3 31.2C193.14 27.14 192.96 22.99 192.77 18.77C193.6 18.9 194.4 19.01 195.17 19.11C195.94 19.21 196.71 19.25 197.47 19.25C198.23 19.25 199.01 19.2 199.77 19.11C200.54 19.01 201.34 18.9 202.17 18.77C201.98 22.99 201.8 27.14 201.64 31.2C201.48 35.26 201.4 39.41 201.4 43.63V48.91C201.4 49.42 201.59 49.68 201.98 49.68C202.23 49.68 202.68 49.39 203.32 48.82C205.56 46.9 207.91 44.72 210.38 42.29C212.84 39.86 215.32 37.33 217.82 34.71C220.32 32.09 222.78 29.42 225.21 26.69C227.64 23.97 229.98 21.33 232.22 18.77C232.92 18.9 233.6 19.01 234.24 19.11C234.88 19.21 235.52 19.25 236.16 19.25C236.93 19.25 237.7 19.2 238.46 19.11C239.23 19.01 240 18.9 240.76 18.77C238.52 20.69 235.99 22.96 233.18 25.59C230.36 28.21 227.53 30.9 224.68 33.65C221.83 36.4 219.11 39.11 216.52 41.76C213.93 44.42 211.77 46.74 210.04 48.72C215.22 54.54 220.46 60.48 225.74 66.53C231.02 72.58 236.38 78.64 241.82 84.72C240.86 84.59 239.9 84.53 238.94 84.53H233.42C232.56 84.53 231.68 84.59 230.78 84.72C228.48 82.1 225.93 79.09 223.15 75.7C220.37 72.31 217.65 69.03 214.99 65.86C212.33 62.69 209.93 59.85 207.79 57.32C205.64 54.79 204.06 53.02 203.04 51.99C202.53 51.48 202.14 51.22 201.89 51.22C201.57 51.22 201.41 51.41 201.41 51.8V60.15C201.41 64.37 201.49 68.53 201.65 72.63C201.81 76.73 201.99 80.76 202.18 84.73C200.71 84.6 199.14 84.54 197.48 84.54C195.82 84.54 194.25 84.6 192.78 84.73L192.77 84.72Z" fill="white"/>
<g id="Group">
<path id="Vector_4" d="M85.1 19.89C85.37 16.68 86.43 13.6 88.24 11.1C88.86 10.24 89.6 8.78 89.6 6.74C89.6 3.03 87.05 0 83.92 0C80.79 0 78.24 3.02 78.24 6.74C78.24 8.78 78.98 10.24 79.6 11.1C81.41 13.61 82.47 16.68 82.74 19.89C83.08 19.67 83.49 19.54 83.92 19.54C84.35 19.54 84.76 19.67 85.1 19.89Z" fill="white"/>
<path id="Vector_5" d="M82.67 23.59C82.64 23.88 82.62 24.17 82.57 24.46C81.8 29.22 79.24 33.3 75.63 35.56C69.69 39.26 66 46.47 66 54.38C66 66.09 74.03 75.62 83.91 75.62C93.79 75.62 101.82 66.09 101.82 54.38C101.82 46.47 98.13 39.26 92.19 35.56C88.57 33.31 86.02 29.22 85.25 24.46C85.2 24.17 85.18 23.88 85.15 23.59C84.8 23.83 84.37 23.97 83.91 23.97C83.45 23.97 83.02 23.83 82.67 23.59Z" fill="white"/>
<path id="Vector_6" d="M117.22 39.71C115.46 35.45 113 31.85 109.83 28.91C106.66 25.97 102.87 23.73 98.45 22.19C94.39 20.78 89.94 20.02 85.13 19.91C85.73 20.31 86.12 20.98 86.12 21.76C86.12 22.46 85.79 23.07 85.28 23.48C88.51 23.62 91.55 24.21 94.37 25.27C97.6 26.49 100.42 28.36 102.82 30.89C105.22 33.42 107.09 36.62 108.44 40.49C109.78 44.36 110.46 48.95 110.46 54.27C110.46 59.59 109.79 64.17 108.44 68.05C107.1 71.92 105.22 75.12 102.82 77.65C100.42 80.18 97.6 82.05 94.37 83.27C91.14 84.49 87.63 85.09 83.86 85.09C80.09 85.09 76.67 84.48 73.44 83.27C70.21 82.06 67.39 80.18 64.99 77.65C62.59 75.12 60.72 71.92 59.37 68.05C58.03 64.18 57.35 59.59 57.35 54.27C57.35 48.95 58.02 44.37 59.37 40.49C60.71 36.62 62.59 33.42 64.99 30.89C67.39 28.36 70.21 26.49 73.44 25.27C76.28 24.2 79.31 23.61 82.52 23.48C82.02 23.07 81.69 22.46 81.69 21.76C81.69 20.99 82.09 20.31 82.69 19.91C77.89 20.02 73.45 20.77 69.36 22.19C64.94 23.73 61.15 25.97 57.98 28.91C54.81 31.86 52.35 35.45 50.59 39.71C48.83 43.97 47.95 48.81 47.95 54.25C47.95 59.69 48.83 64.54 50.59 68.79C52.35 73.05 54.81 76.65 57.98 79.59C61.15 82.53 64.94 84.73 69.36 86.17C73.78 87.61 78.61 88.33 83.86 88.33C89.11 88.33 94.04 87.61 98.45 86.17C102.87 84.73 106.66 82.54 109.83 79.59C113 76.65 115.46 73.05 117.22 68.79C118.98 64.53 119.86 59.69 119.86 54.25C119.86 48.81 118.98 43.96 117.22 39.71Z" fill="white"/>
</g>
</g>
<defs>
<clipPath id="clip0_0_4">
<rect width="241.82" height="88.33" fill="white"/>
</clipPath>
</defs>
</svg>
