<svg preserveAspectRatio="none" overflow="visible" style="display: block;" width="16.6667" height="16.6667" viewBox="0 0 16.6667 16.6667" fill="none" xmlns="http://www.w3.org/2000/svg">
<path id="Vector" d="M8.33333 16.6667C7.18056 16.6667 6.09722 16.4478 5.08333 16.01C4.06944 15.5722 3.1875 14.9786 2.4375 14.2292C1.6875 13.4797 1.09389 12.5978 0.656667 11.5833C0.219445 10.5689 0.000555556 9.48556 0 8.33333C0 7.16667 0.215278 6.08 0.645833 5.07333C1.07639 4.06667 1.66667 3.18111 2.41667 2.41667L8.33333 8.33333V0C9.48611 0 10.5694 0.218889 11.5833 0.656667C12.5972 1.09444 13.4792 1.68806 14.2292 2.4375C14.9792 3.18694 15.5731 4.06889 16.0108 5.08333C16.4486 6.09778 16.6672 7.18111 16.6667 8.33333C16.6661 9.48556 16.4472 10.5689 16.01 11.5833C15.5728 12.5978 14.9792 13.4797 14.2292 14.2292C13.4792 14.9786 12.5972 15.5725 11.5833 16.0108C10.5694 16.4492 9.48611 16.6678 8.33333 16.6667Z" fill="white"/>
</svg>
